<svg width="347" height="52" viewBox="0 0 347 52" fill="none" xmlns="http://www.w3.org/2000/svg">
<path d="M26.1937 19.4053L20.8734 22.5312C20.5883 22.6988 20.2367 22.6996 19.9515 22.5322L3.15268 12.666C2.37573 12.2097 2.63266 11.0078 3.52573 10.9209L10.5785 10.2354L26.1937 19.4053ZM33.4056 15.168L27.6244 18.5645L13.0345 9.99609L22.9564 9.03125L33.4056 15.168ZM39.4115 10.0156C40.0258 10.3764 40.0257 11.2788 39.4115 11.6396L35.0121 14.2246L25.7122 8.7627L35.6341 7.79785L39.4115 10.0156ZM43.7874 7.00488C44.7729 6.90923 45.1934 8.2462 44.3363 8.75L42.683 9.7207C42.3979 9.88804 42.0471 9.88796 41.7621 9.7207L38.0824 7.55957L43.7874 7.00488Z" fill="#EDBF86"/>
<path d="M26.1937 19.4053L20.8734 22.5312C20.5883 22.6988 20.2367 22.6996 19.9515 22.5322L3.15268 12.666C2.37573 12.2097 2.63266 11.0078 3.52573 10.9209L10.5785 10.2354L26.1937 19.4053ZM33.4056 15.168L27.6244 18.5645L13.0345 9.99609L22.9564 9.03125L33.4056 15.168ZM39.4115 10.0156C40.0258 10.3764 40.0257 11.2788 39.4115 11.6396L35.0121 14.2246L25.7122 8.7627L35.6341 7.79785L39.4115 10.0156ZM43.7874 7.00488C44.7729 6.90923 45.1934 8.2462 44.3363 8.75L42.683 9.7207C42.3979 9.88804 42.0471 9.88796 41.7621 9.7207L38.0824 7.55957L43.7874 7.00488Z" stroke="#773624"/>
<path d="M-0.000640869 34.8837C-0.000640893 35.2186 0.175006 35.528 0.460136 35.6955L4.39958 38.009C5.01395 38.3698 5.78191 37.9188 5.78191 37.1972L5.78191 15.7604L1.38153 13.1774C0.767158 12.8168 -0.0006393 13.2678 -0.000639352 13.9893L-0.000640869 34.8837Z" fill="#F08C80"/>
<path d="M14.6026 43.5995C14.6026 43.9344 14.7783 44.2439 15.0634 44.4113L19.0028 46.7249C19.6172 47.0857 20.3852 46.6347 20.3852 45.9131L20.3852 24.8738C20.3852 24.5388 20.2095 24.2293 19.9242 24.0619L14.6026 20.9381L14.6026 43.5995Z" fill="#F08C80"/>
<path d="M7.38858 39.3628C7.38858 39.6977 7.56423 40.0072 7.84936 40.1746L11.7888 42.4881C12.4032 42.8489 13.1711 42.3979 13.1711 41.6763L13.1711 20.0979L7.38859 16.7035L7.38858 39.3628Z" fill="#F08C80"/>
<path d="M21.6631 28.8388C21.6631 29.5604 22.431 30.0114 23.0454 29.6506L47.5392 15.2661C47.8243 15.0986 48 14.7892 48 14.4543V9.82722C48 9.10561 47.232 8.65461 46.6177 9.01541L22.1239 23.3999C21.8387 23.5674 21.6631 23.8768 21.6631 24.2117V28.8388Z" fill="#F5EEF3"/>
<path d="M21.6631 37.3122C21.6631 38.0338 22.431 38.4848 23.0454 38.124L47.5392 23.7395C47.8243 23.5721 48 23.2626 48 22.9277V18.3007C48 17.5791 47.232 17.1281 46.6177 17.4889L22.1239 31.8734C21.8387 32.0408 21.6631 32.3503 21.6631 32.6852V37.3122Z" fill="#F5EEF3"/>
<path d="M21.5443 46.0612C21.5443 46.7828 22.3122 47.2338 22.9266 46.873L47.4204 32.4885C47.7056 32.321 47.8812 32.0116 47.8812 31.6767V27.0496C47.8812 26.328 47.1132 25.877 46.4989 26.2378L22.0051 40.6223C21.7199 40.7898 21.5443 41.0992 21.5443 41.4341V46.0612Z" fill="#F5EEF3"/>
<path d="M73.0908 14.0389C74.8268 14.0389 76.3923 14.3179 77.7873 14.8759C79.1823 15.4339 80.3707 16.2244 81.3523 17.2474C82.3443 18.26 83.1038 19.469 83.6308 20.8744C84.1578 22.2797 84.4213 23.84 84.4213 25.5554C84.4213 27.1674 84.1578 28.6605 83.6308 30.0349C83.1142 31.4092 82.365 32.6079 81.3833 33.6309C80.412 34.6539 79.2392 35.4495 77.8648 36.0179C76.4905 36.5862 74.9508 36.8704 73.2458 36.8704C71.5098 36.8704 69.9443 36.5914 68.5493 36.0334C67.1647 35.4754 65.9763 34.69 64.9843 33.6774C63.9923 32.6544 63.2328 31.4402 62.7058 30.0349C62.1788 28.6192 61.9153 27.0485 61.9153 25.3229C61.9153 23.7212 62.1737 22.2332 62.6903 20.8589C63.2173 19.4845 63.9665 18.291 64.9378 17.2784C65.9195 16.2554 67.0975 15.4597 68.4718 14.8914C69.8462 14.323 71.3858 14.0389 73.0908 14.0389ZM78.3298 29.1359C78.3298 27.7512 78.211 26.4027 77.9733 25.0904C77.7357 23.778 77.405 22.5639 76.9813 21.4479C76.568 20.3215 76.0875 19.3347 75.5398 18.4874C74.9922 17.64 74.4032 16.9787 73.7728 16.5034C73.1425 16.028 72.5018 15.7904 71.8508 15.7904C71.0655 15.7904 70.3887 16.0229 69.8203 16.4879C69.252 16.9425 68.818 17.6142 68.5183 18.5029C68.2187 19.3812 68.0688 20.461 68.0688 21.7424C68.0688 23.1374 68.1877 24.491 68.4253 25.8034C68.663 27.1157 68.9885 28.335 69.4018 29.4614C69.8152 30.5877 70.2957 31.5745 70.8433 32.4219C71.391 33.2692 71.98 33.9357 72.6103 34.4214C73.2407 34.8967 73.8813 35.1344 74.5323 35.1344C75.328 35.1344 76.01 34.9019 76.5783 34.4369C77.1467 33.9719 77.5807 33.3002 77.8803 32.4219C78.18 31.5332 78.3298 30.4379 78.3298 29.1359ZM93.3639 22.3159V33.6309C93.3639 33.9719 93.4 34.2199 93.4724 34.3749C93.555 34.5195 93.679 34.628 93.8444 34.7004L94.3094 34.8709C94.6194 35.0155 94.7744 35.2377 94.7744 35.5374C94.7744 36.0437 94.4644 36.2969 93.8444 36.2969H87.3654C87.045 36.2969 86.8074 36.2349 86.6524 36.1109C86.5077 35.9765 86.4354 35.8009 86.4354 35.5839C86.4354 35.4185 86.4819 35.279 86.5749 35.1654C86.6679 35.0414 86.8125 34.938 87.0089 34.8554L87.5204 34.7004C87.6857 34.6384 87.8045 34.535 87.8769 34.3904C87.9492 34.2354 87.9854 33.9822 87.9854 33.6309V25.2144C87.9854 24.9457 87.944 24.7545 87.8614 24.6409C87.789 24.5169 87.6702 24.4394 87.5049 24.4084L86.9004 24.3309C86.7144 24.2792 86.58 24.2017 86.4974 24.0984C86.4147 23.995 86.3734 23.8607 86.3734 23.6954C86.3734 23.499 86.425 23.344 86.5284 23.2304C86.6317 23.1167 86.8332 23.0082 87.1329 22.9049L90.5119 21.6804C90.9252 21.5254 91.261 21.4117 91.5194 21.3394C91.7777 21.267 92.0257 21.2309 92.2634 21.2309C92.625 21.2309 92.8989 21.3342 93.0849 21.5409C93.2709 21.7372 93.3639 21.9955 93.3639 22.3159ZM92.8679 25.8964L92.1084 25.1059L92.6509 24.6099C93.9942 23.3905 95.1464 22.5174 96.1074 21.9904C97.0787 21.4634 97.9829 21.1999 98.8199 21.1999C100.081 21.1999 101.067 21.6235 101.78 22.4709C102.493 23.3182 102.917 24.4549 103.051 25.8809L103.873 33.6154C103.914 33.9667 103.961 34.2199 104.012 34.3749C104.074 34.5299 104.193 34.6384 104.369 34.7004L104.834 34.8554C105.041 34.938 105.185 35.0414 105.268 35.1654C105.361 35.279 105.407 35.4185 105.407 35.5839C105.407 35.8009 105.335 35.9765 105.19 36.1109C105.046 36.2349 104.813 36.2969 104.493 36.2969H97.9364C97.3164 36.2969 97.0064 36.0437 97.0064 35.5374C97.0064 35.2377 97.1614 35.0155 97.4714 34.8709L97.9519 34.7004C98.1275 34.628 98.2567 34.5144 98.3394 34.3594C98.4324 34.2044 98.4634 33.9564 98.4324 33.6154L97.7039 26.6249C97.6212 25.8602 97.43 25.2867 97.1304 24.9044C96.841 24.5117 96.3967 24.3154 95.7974 24.3154C95.4254 24.3154 95.0379 24.4084 94.6349 24.5944C94.2422 24.7804 93.8444 25.0439 93.4414 25.3849L92.8679 25.8964ZM121.384 27.1519C121.384 27.7305 121.224 28.18 120.904 28.5004C120.584 28.8207 120.119 28.9809 119.509 28.9809H110.054V27.6944H115.277C115.794 27.6944 116.052 27.4567 116.052 26.9814C116.052 25.576 115.851 24.5479 115.448 23.8969C115.045 23.2355 114.513 22.9049 113.851 22.9049C113.355 22.9049 112.916 23.0702 112.534 23.4009C112.152 23.7315 111.847 24.2275 111.619 24.8889C111.402 25.5399 111.294 26.351 111.294 27.3224C111.294 29.2857 111.738 30.7427 112.627 31.6934C113.516 32.6337 114.714 33.1039 116.223 33.1039C117.05 33.1039 117.778 32.9592 118.408 32.6699C119.049 32.3702 119.576 31.9104 119.989 31.2904C120.206 31.0734 120.372 30.9287 120.485 30.8564C120.609 30.784 120.733 30.7479 120.857 30.7479C121.023 30.7479 121.147 30.8305 121.229 30.9959C121.312 31.1509 121.348 31.342 121.338 31.5694C121.317 32.489 121.007 33.3415 120.408 34.1269C119.819 34.9019 119.003 35.527 117.959 36.0024C116.926 36.4674 115.732 36.6999 114.378 36.6999C112.859 36.6999 111.506 36.3899 110.317 35.7699C109.129 35.1499 108.189 34.287 107.496 33.1814C106.814 32.0757 106.473 30.784 106.473 29.3064C106.473 27.684 106.794 26.2684 107.434 25.0594C108.075 23.84 109 22.8945 110.209 22.2229C111.428 21.5409 112.88 21.1999 114.564 21.1999C116.032 21.1999 117.272 21.4582 118.284 21.9749C119.307 22.4812 120.077 23.1839 120.594 24.0829C121.121 24.9715 121.384 25.9945 121.384 27.1519ZM143.894 22.6569C143.894 24.0105 143.543 25.1834 142.84 26.1754C142.137 27.1674 141.14 27.9372 139.848 28.4849C138.557 29.0325 137.022 29.3064 135.245 29.3064C134.057 29.3064 132.992 29.1772 132.052 28.9189C131.122 28.6605 130.295 28.2989 129.572 27.8339L129.773 26.3304C130.166 26.6094 130.559 26.8367 130.951 27.0124C131.354 27.188 131.773 27.3224 132.207 27.4154C132.641 27.498 133.106 27.5394 133.602 27.5394C134.449 27.5394 135.214 27.3534 135.896 26.9814C136.578 26.599 137.115 26.0359 137.508 25.2919C137.911 24.5375 138.112 23.6075 138.112 22.5019C138.112 21.2205 137.88 20.12 137.415 19.2004C136.95 18.2704 136.309 17.5574 135.493 17.0614C134.687 16.555 133.747 16.3019 132.672 16.3019H131.866V33.5069C131.866 33.7445 131.923 33.9409 132.036 34.0959C132.16 34.2509 132.357 34.3542 132.625 34.4059L133.772 34.6074C134.041 34.659 134.232 34.7572 134.346 34.9019C134.47 35.0362 134.532 35.2325 134.532 35.4909C134.532 35.7389 134.449 35.9352 134.284 36.0799C134.119 36.2245 133.855 36.2969 133.493 36.2969H124.736C124.385 36.2969 124.121 36.2245 123.945 36.0799C123.78 35.9352 123.697 35.7389 123.697 35.4909C123.697 35.0672 123.925 34.7779 124.379 34.6229L125.154 34.4059C125.413 34.3232 125.604 34.2095 125.728 34.0649C125.852 33.9202 125.914 33.7342 125.914 33.5069V17.3869C125.914 17.1595 125.852 16.9735 125.728 16.8289C125.604 16.6842 125.413 16.5705 125.154 16.4879L124.379 16.2709C123.925 16.1159 123.697 15.8265 123.697 15.4029C123.697 15.1445 123.78 14.9482 123.945 14.8139C124.121 14.6692 124.385 14.5969 124.736 14.5969H132.827C135.162 14.5969 137.151 14.943 138.794 15.6354C140.448 16.3174 141.708 17.268 142.576 18.4874C143.455 19.6964 143.894 21.0862 143.894 22.6569ZM159.801 27.1519C159.801 27.7305 159.641 28.18 159.321 28.5004C159.001 28.8207 158.536 28.9809 157.926 28.9809H148.471V27.6944H153.694C154.211 27.6944 154.469 27.4567 154.469 26.9814C154.469 25.576 154.268 24.5479 153.865 23.8969C153.462 23.2355 152.93 22.9049 152.268 22.9049C151.772 22.9049 151.333 23.0702 150.951 23.4009C150.569 23.7315 150.264 24.2275 150.036 24.8889C149.819 25.5399 149.711 26.351 149.711 27.3224C149.711 29.2857 150.155 30.7427 151.044 31.6934C151.933 32.6337 153.131 33.1039 154.64 33.1039C155.467 33.1039 156.195 32.9592 156.825 32.6699C157.466 32.3702 157.993 31.9104 158.406 31.2904C158.623 31.0734 158.789 30.9287 158.902 30.8564C159.026 30.784 159.15 30.7479 159.274 30.7479C159.44 30.7479 159.564 30.8305 159.646 30.9959C159.729 31.1509 159.765 31.342 159.755 31.5694C159.734 32.489 159.424 33.3415 158.825 34.1269C158.236 34.9019 157.42 35.527 156.376 36.0024C155.343 36.4674 154.149 36.6999 152.795 36.6999C151.276 36.6999 149.923 36.3899 148.734 35.7699C147.546 35.1499 146.606 34.287 145.913 33.1814C145.231 32.0757 144.89 30.784 144.89 29.3064C144.89 27.684 145.211 26.2684 145.851 25.0594C146.492 23.84 147.417 22.8945 148.626 22.2229C149.845 21.5409 151.297 21.1999 152.981 21.1999C154.449 21.1999 155.689 21.4582 156.701 21.9749C157.724 22.4812 158.494 23.1839 159.011 24.0829C159.538 24.9715 159.801 25.9945 159.801 27.1519ZM168.051 27.9889C168.051 26.4699 168.258 25.2092 168.671 24.2069C169.095 23.1942 169.647 22.4399 170.329 21.9439C171.022 21.4479 171.761 21.1999 172.546 21.1999C173.559 21.1999 174.339 21.4995 174.886 22.0989C175.434 22.6982 175.708 23.5765 175.708 24.7339C175.708 25.8602 175.475 26.692 175.01 27.2294C174.556 27.7667 173.962 28.0354 173.228 28.0354C172.494 28.0354 171.941 27.8442 171.569 27.4619C171.208 27.0795 171.022 26.5422 171.011 25.8499V25.2454C171.001 24.956 170.934 24.739 170.81 24.5944C170.686 24.4394 170.484 24.3619 170.205 24.3619C169.926 24.3619 169.663 24.4807 169.415 24.7184C169.167 24.956 168.965 25.3332 168.81 25.8499C168.666 26.3665 168.593 27.033 168.593 27.8494L168.051 27.9889ZM168.299 22.3314L168.593 25.8809V33.6154C168.593 33.9254 168.645 34.1527 168.748 34.2974C168.862 34.4317 169.079 34.5299 169.399 34.5919L170.67 34.8089C170.929 34.8605 171.115 34.9484 171.228 35.0724C171.352 35.186 171.414 35.3514 171.414 35.5684C171.414 35.7957 171.332 35.9765 171.166 36.1109C171.011 36.2349 170.779 36.2969 170.469 36.2969H162.595C162.275 36.2969 162.042 36.2349 161.897 36.1109C161.753 35.9765 161.68 35.8009 161.68 35.5839C161.68 35.4185 161.722 35.279 161.804 35.1654C161.897 35.0414 162.047 34.938 162.254 34.8554L162.75 34.7004C162.915 34.6384 163.034 34.535 163.106 34.3904C163.179 34.2354 163.215 33.9874 163.215 33.6464V25.2609C163.215 24.9819 163.174 24.7855 163.091 24.6719C163.019 24.5479 162.9 24.4704 162.734 24.4394L162.13 24.3619C161.944 24.3102 161.81 24.2327 161.727 24.1294C161.644 24.0157 161.603 23.8814 161.603 23.7264C161.603 23.5404 161.655 23.3905 161.758 23.2769C161.872 23.1529 162.073 23.0392 162.362 22.9359L165.664 21.7579C166.232 21.5409 166.64 21.4014 166.888 21.3394C167.147 21.2774 167.348 21.2464 167.493 21.2464C167.731 21.2464 167.911 21.329 168.035 21.4944C168.159 21.6597 168.247 21.9387 168.299 22.3314ZM184.762 33.6154C184.762 33.9254 184.814 34.1682 184.917 34.3439C185.031 34.5092 185.212 34.6074 185.46 34.6384L187.056 34.8399C187.314 34.8709 187.495 34.9535 187.599 35.0879C187.712 35.2222 187.769 35.3824 187.769 35.5684C187.769 36.054 187.475 36.2969 186.886 36.2969H178.19C177.921 36.2969 177.71 36.2349 177.555 36.1109C177.4 35.9869 177.322 35.8164 177.322 35.5994C177.322 35.403 177.374 35.2429 177.477 35.1189C177.591 34.9949 177.772 34.8967 178.02 34.8244L178.609 34.6849C178.898 34.5919 179.099 34.4679 179.213 34.3129C179.337 34.1579 179.399 33.9409 179.399 33.6619V24.7959C179.399 24.6099 179.347 24.4497 179.244 24.3154C179.151 24.181 178.97 24.0622 178.702 23.9589L177.927 23.6799C177.596 23.5352 177.369 23.3957 177.245 23.2614C177.121 23.127 177.059 22.9772 177.059 22.8119C177.059 22.6155 177.126 22.4605 177.26 22.3469C177.405 22.2229 177.627 22.1609 177.927 22.1609H180.453L179.415 22.6259V22.1919C179.415 21.9335 179.327 21.6804 179.151 21.4324C178.986 21.1844 178.789 20.9157 178.562 20.6264C178.335 20.3267 178.133 19.9805 177.958 19.5879C177.792 19.1849 177.71 18.7095 177.71 18.1619C177.71 16.8289 178.211 15.7542 179.213 14.9379C180.215 14.1215 181.616 13.7134 183.414 13.7134C184.561 13.7134 185.527 13.8942 186.312 14.2559C187.108 14.6175 187.707 15.098 188.11 15.6974C188.513 16.2864 188.715 16.927 188.715 17.6194C188.715 18.3634 188.508 18.9317 188.095 19.3244C187.692 19.717 187.159 19.9134 186.498 19.9134C185.785 19.9134 185.206 19.6964 184.762 19.2624C184.328 18.8284 184.111 18.2445 184.111 17.5109V16.3329C184.111 15.8885 183.987 15.5579 183.739 15.3409C183.491 15.1135 183.16 14.9999 182.747 14.9999C182.251 14.9999 181.869 15.1549 181.6 15.4649C181.342 15.7749 181.213 16.2192 181.213 16.7979C181.213 17.3042 181.316 17.764 181.523 18.1774C181.74 18.5804 182.003 18.9524 182.313 19.2934C182.633 19.6344 182.949 19.965 183.259 20.2854C183.579 20.5954 183.842 20.9054 184.049 21.2154C184.266 21.5254 184.375 21.856 184.375 22.2074V22.9204L183.817 22.1609H187.335C187.593 22.1609 187.795 22.2177 187.94 22.3314C188.095 22.4347 188.172 22.5845 188.172 22.7809C188.172 23.0909 188.022 23.3492 187.723 23.5559C187.423 23.7625 186.937 23.8659 186.266 23.8659H184.762V33.6154ZM204.636 27.1519C204.636 27.7305 204.476 28.18 204.156 28.5004C203.836 28.8207 203.371 28.9809 202.761 28.9809H193.306V27.6944H198.529C199.046 27.6944 199.304 27.4567 199.304 26.9814C199.304 25.576 199.103 24.5479 198.7 23.8969C198.297 23.2355 197.765 22.9049 197.103 22.9049C196.607 22.9049 196.168 23.0702 195.786 23.4009C195.404 23.7315 195.099 24.2275 194.871 24.8889C194.654 25.5399 194.546 26.351 194.546 27.3224C194.546 29.2857 194.99 30.7427 195.879 31.6934C196.768 32.6337 197.966 33.1039 199.475 33.1039C200.302 33.1039 201.03 32.9592 201.66 32.6699C202.301 32.3702 202.828 31.9104 203.241 31.2904C203.458 31.0734 203.624 30.9287 203.737 30.8564C203.861 30.784 203.985 30.7479 204.109 30.7479C204.275 30.7479 204.399 30.8305 204.481 30.9959C204.564 31.1509 204.6 31.342 204.59 31.5694C204.569 32.489 204.259 33.3415 203.66 34.1269C203.071 34.9019 202.255 35.527 201.211 36.0024C200.178 36.4674 198.984 36.6999 197.63 36.6999C196.111 36.6999 194.758 36.3899 193.569 35.7699C192.381 35.1499 191.441 34.287 190.748 33.1814C190.066 32.0757 189.725 30.784 189.725 29.3064C189.725 27.684 190.046 26.2684 190.686 25.0594C191.327 23.84 192.252 22.8945 193.461 22.2229C194.68 21.5409 196.132 21.1999 197.816 21.1999C199.284 21.1999 200.524 21.4582 201.536 21.9749C202.559 22.4812 203.329 23.1839 203.846 24.0829C204.373 24.9715 204.636 25.9945 204.636 27.1519ZM220.977 25.6639C220.977 26.3459 220.734 26.9194 220.248 27.3844C219.763 27.8494 219.106 28.0819 218.28 28.0819C217.484 28.0819 216.88 27.8649 216.466 27.4309C216.053 26.9865 215.846 26.413 215.846 25.7104V25.1369C215.846 24.4445 215.671 23.902 215.319 23.5094C214.978 23.1064 214.518 22.9049 213.94 22.9049C213.433 22.9049 212.974 23.0754 212.56 23.4164C212.157 23.747 211.832 24.2379 211.584 24.8889C211.346 25.5399 211.227 26.3407 211.227 27.2914C211.227 28.552 211.434 29.6112 211.847 30.4689C212.271 31.3265 212.85 31.9724 213.583 32.4064C214.317 32.8404 215.149 33.0574 216.079 33.0574C216.864 33.0574 217.556 32.923 218.156 32.6544C218.765 32.3857 219.282 31.9569 219.706 31.3679C219.923 31.1509 220.088 31.0062 220.202 30.9339C220.326 30.8615 220.45 30.8254 220.574 30.8254C220.739 30.8254 220.858 30.908 220.93 31.0734C221.013 31.2284 221.054 31.4195 221.054 31.6469C221.013 32.5665 220.698 33.4087 220.109 34.1734C219.53 34.938 218.734 35.5529 217.722 36.0179C216.709 36.4725 215.541 36.6999 214.219 36.6999C212.72 36.6999 211.382 36.395 210.204 35.7854C209.026 35.1757 208.096 34.318 207.414 33.2124C206.732 32.1067 206.391 30.8099 206.391 29.3219C206.391 27.7719 206.727 26.3872 207.399 25.1679C208.081 23.9382 209.031 22.972 210.251 22.2694C211.48 21.5564 212.922 21.1999 214.575 21.1999C215.908 21.1999 217.05 21.4014 218.001 21.8044C218.962 22.197 219.695 22.7344 220.202 23.4164C220.718 24.088 220.977 24.8372 220.977 25.6639ZM223.606 23.2304L222.939 23.0134C222.712 22.941 222.546 22.848 222.443 22.7344C222.35 22.6104 222.304 22.4657 222.304 22.3004C222.304 22.073 222.381 21.9025 222.536 21.7889C222.691 21.6649 222.898 21.6029 223.156 21.6029H224.086C224.293 21.6029 224.474 21.5615 224.629 21.4789C224.784 21.3859 224.964 21.2205 225.171 20.9829L227.45 18.4564C227.708 18.1774 227.951 17.9707 228.178 17.8364C228.405 17.702 228.628 17.6349 228.845 17.6349C229.082 17.6349 229.268 17.7124 229.403 17.8674C229.537 18.0224 229.604 18.2445 229.604 18.5339V31.3679C229.604 32.1222 229.744 32.6957 230.023 33.0884C230.302 33.481 230.689 33.6774 231.185 33.6774C231.557 33.6774 231.846 33.5999 232.053 33.4449C232.26 33.2795 232.425 33.0884 232.549 32.8714C232.683 32.6544 232.813 32.458 232.937 32.2824C233.071 32.1067 233.241 31.9982 233.448 31.9569C233.603 31.9465 233.732 31.9982 233.836 32.1119C233.939 32.2152 233.991 32.4064 233.991 32.6854C233.97 33.419 233.743 34.0907 233.309 34.7004C232.885 35.2997 232.296 35.7802 231.542 36.1419C230.787 36.4932 229.924 36.6689 228.953 36.6689C227.465 36.6689 226.308 36.3072 225.481 35.5839C224.654 34.8502 224.241 33.7445 224.241 32.2669V24.1294C224.241 23.8607 224.189 23.6644 224.086 23.5404C223.993 23.4164 223.833 23.313 223.606 23.2304ZM227.682 23.3079L227.698 21.6029H233.03C233.288 21.6029 233.489 21.6597 233.634 21.7734C233.789 21.8767 233.867 22.0265 233.867 22.2229C233.867 22.5329 233.717 22.7912 233.417 22.9979C233.117 23.2045 232.632 23.3079 231.96 23.3079H227.682ZM244.802 36.7464C244.007 36.7464 243.325 36.6534 242.756 36.4674C242.198 36.2917 241.733 36.116 241.361 35.9404C241 35.7544 240.716 35.6614 240.509 35.6614C240.302 35.6614 240.111 35.7234 239.935 35.8474C239.77 35.961 239.605 36.0954 239.439 36.2504C239.284 36.395 239.119 36.5242 238.943 36.6379C238.778 36.7619 238.592 36.8239 238.385 36.8239C238.137 36.8239 237.931 36.7464 237.765 36.5914C237.61 36.4467 237.502 36.2039 237.44 35.8629L236.448 30.4844C236.417 30.2364 236.453 30.0297 236.556 29.8644C236.66 29.6887 236.835 29.5544 237.083 29.4614C237.352 29.3684 237.59 29.3735 237.796 29.4769C238.003 29.5802 238.184 29.7817 238.339 30.0814C239 31.3524 239.656 32.3444 240.307 33.0574C240.969 33.7704 241.635 34.2715 242.307 34.5609C242.989 34.8502 243.681 34.9949 244.384 34.9949C245.355 34.9949 246.125 34.7572 246.693 34.2819C247.262 33.7962 247.546 33.1194 247.546 32.2514C247.546 31.6934 247.412 31.1922 247.143 30.7479C246.885 30.3035 246.378 29.8747 245.624 29.4614C244.88 29.048 243.785 28.6192 242.338 28.1749C240.736 27.6685 239.45 27.0847 238.478 26.4234C237.517 25.7517 236.82 24.956 236.386 24.0364C235.952 23.1064 235.735 22.0214 235.735 20.7814C235.735 19.4897 236.05 18.353 236.68 17.3714C237.311 16.3794 238.194 15.6044 239.331 15.0464C240.478 14.4884 241.821 14.2094 243.361 14.2094C244.239 14.2094 244.973 14.292 245.562 14.4574C246.161 14.6227 246.657 14.7932 247.05 14.9689C247.453 15.1445 247.794 15.2324 248.073 15.2324C248.311 15.2324 248.517 15.1445 248.693 14.9689C248.879 14.7829 249.07 14.5969 249.266 14.4109C249.473 14.2249 249.726 14.1319 250.026 14.1319C250.274 14.1319 250.486 14.2145 250.661 14.3799C250.837 14.5452 250.987 14.85 251.111 15.2944L252.568 20.5799C252.651 20.8795 252.64 21.143 252.537 21.3704C252.434 21.5977 252.253 21.7579 251.994 21.8509C251.726 21.9335 251.488 21.9232 251.281 21.8199C251.075 21.7165 250.899 21.5357 250.754 21.2774C250.062 19.9237 249.339 18.8594 248.584 18.0844C247.83 17.3094 247.065 16.7617 246.29 16.4414C245.526 16.121 244.766 15.9609 244.012 15.9609C243.072 15.9609 242.328 16.2295 241.78 16.7669C241.243 17.3042 240.974 18.012 240.974 18.8904C240.974 19.4277 241.098 19.9289 241.346 20.3939C241.604 20.8485 242.095 21.298 242.818 21.7424C243.542 22.1867 244.611 22.6569 246.027 23.1529C247.639 23.7212 248.92 24.3412 249.871 25.0129C250.822 25.6845 251.509 26.4492 251.932 27.3069C252.356 28.1542 252.568 29.141 252.568 30.2674C252.568 31.466 252.258 32.5562 251.638 33.5379C251.018 34.5195 250.129 35.2997 248.972 35.8784C247.825 36.457 246.435 36.7464 244.802 36.7464ZM261.73 14.1629V33.6309C261.73 33.9719 261.766 34.2199 261.838 34.3749C261.921 34.5299 262.045 34.6384 262.21 34.7004L262.691 34.8554C262.898 34.9277 263.047 35.0259 263.14 35.1499C263.233 35.2739 263.28 35.4185 263.28 35.5839C263.28 35.8009 263.202 35.9765 263.047 36.1109C262.903 36.2349 262.67 36.2969 262.35 36.2969H255.731C255.411 36.2969 255.179 36.2349 255.034 36.1109C254.889 35.9765 254.817 35.8009 254.817 35.5839C254.817 35.4185 254.858 35.279 254.941 35.1654C255.034 35.0414 255.184 34.938 255.39 34.8554L255.886 34.7004C256.052 34.6384 256.171 34.535 256.243 34.3904C256.315 34.2354 256.351 33.9822 256.351 33.6309V17.0614C256.351 16.7927 256.31 16.6015 256.227 16.4879C256.155 16.3639 256.036 16.2864 255.871 16.2554L255.266 16.1779C255.08 16.1262 254.946 16.0487 254.863 15.9454C254.781 15.8317 254.739 15.6974 254.739 15.5424C254.739 15.346 254.791 15.191 254.894 15.0774C255.008 14.9637 255.21 14.8552 255.499 14.7519L258.878 13.5274C259.322 13.362 259.668 13.2484 259.916 13.1864C260.175 13.114 260.402 13.0779 260.598 13.0779C260.981 13.0779 261.265 13.1812 261.451 13.3879C261.637 13.5842 261.73 13.8425 261.73 14.1629ZM271.886 22.3159V33.6309C271.886 33.9719 271.922 34.2199 271.995 34.3749C272.077 34.5299 272.201 34.6384 272.367 34.7004L272.863 34.8554C273.059 34.9277 273.204 35.0259 273.297 35.1499C273.39 35.2739 273.436 35.4185 273.436 35.5839C273.436 35.8009 273.359 35.9765 273.204 36.1109C273.059 36.2349 272.827 36.2969 272.506 36.2969H265.888C265.567 36.2969 265.335 36.2349 265.19 36.1109C265.046 35.9765 264.973 35.8009 264.973 35.5839C264.973 35.4185 265.015 35.279 265.097 35.1654C265.19 35.0414 265.335 34.938 265.531 34.8554L266.043 34.7004C266.208 34.6384 266.327 34.535 266.399 34.3904C266.472 34.2354 266.508 33.9822 266.508 33.6309V25.2144C266.508 24.9457 266.466 24.7545 266.384 24.6409C266.311 24.5169 266.193 24.4394 266.027 24.4084L265.423 24.3309C265.237 24.2792 265.102 24.2017 265.02 24.0984C264.937 23.995 264.896 23.8607 264.896 23.6954C264.896 23.499 264.947 23.344 265.051 23.2304C265.164 23.1167 265.366 23.0082 265.655 22.9049L269.034 21.6804C269.479 21.515 269.825 21.4014 270.073 21.3394C270.331 21.267 270.558 21.2309 270.755 21.2309C271.137 21.2309 271.421 21.3342 271.607 21.5409C271.793 21.7372 271.886 21.9955 271.886 22.3159ZM268.895 19.4019C267.923 19.4019 267.148 19.159 266.57 18.6734C265.991 18.1877 265.702 17.5419 265.702 16.7359C265.702 15.9402 265.991 15.3047 266.57 14.8294C267.148 14.3437 267.923 14.1009 268.895 14.1009C269.866 14.1009 270.641 14.3437 271.22 14.8294C271.798 15.3047 272.088 15.9402 272.088 16.7359C272.088 17.5419 271.798 18.1877 271.22 18.6734C270.641 19.159 269.866 19.4019 268.895 19.4019ZM289.546 25.6639C289.546 26.3459 289.303 26.9194 288.818 27.3844C288.332 27.8494 287.676 28.0819 286.849 28.0819C286.053 28.0819 285.449 27.8649 285.036 27.4309C284.622 26.9865 284.416 26.413 284.416 25.7104V25.1369C284.416 24.4445 284.24 23.902 283.889 23.5094C283.548 23.1064 283.088 22.9049 282.509 22.9049C282.003 22.9049 281.543 23.0754 281.13 23.4164C280.727 23.747 280.401 24.2379 280.153 24.8889C279.915 25.5399 279.797 26.3407 279.797 27.2914C279.797 28.552 280.003 29.6112 280.417 30.4689C280.84 31.3265 281.419 31.9724 282.153 32.4064C282.886 32.8404 283.718 33.0574 284.648 33.0574C285.433 33.0574 286.126 32.923 286.725 32.6544C287.335 32.3857 287.851 31.9569 288.275 31.3679C288.492 31.1509 288.657 31.0062 288.771 30.9339C288.895 30.8615 289.019 30.8254 289.143 30.8254C289.308 30.8254 289.427 30.908 289.5 31.0734C289.582 31.2284 289.624 31.4195 289.624 31.6469C289.582 32.5665 289.267 33.4087 288.678 34.1734C288.099 34.938 287.304 35.5529 286.291 36.0179C285.278 36.4725 284.111 36.6999 282.788 36.6999C281.29 36.6999 279.952 36.395 278.774 35.7854C277.596 35.1757 276.666 34.318 275.984 33.2124C275.302 32.1067 274.961 30.8099 274.961 29.3219C274.961 27.7719 275.296 26.3872 275.968 25.1679C276.65 23.9382 277.601 22.972 278.82 22.2694C280.05 21.5564 281.491 21.1999 283.145 21.1999C284.478 21.1999 285.619 21.4014 286.57 21.8044C287.531 22.197 288.265 22.7344 288.771 23.4164C289.288 24.088 289.546 24.8372 289.546 25.6639ZM306.264 27.1519C306.264 27.7305 306.104 28.18 305.784 28.5004C305.464 28.8207 304.999 28.9809 304.389 28.9809H294.934V27.6944H300.157C300.674 27.6944 300.932 27.4567 300.932 26.9814C300.932 25.576 300.731 24.5479 300.328 23.8969C299.925 23.2355 299.393 22.9049 298.731 22.9049C298.235 22.9049 297.796 23.0702 297.414 23.4009C297.032 23.7315 296.727 24.2275 296.499 24.8889C296.282 25.5399 296.174 26.351 296.174 27.3224C296.174 29.2857 296.618 30.7427 297.507 31.6934C298.396 32.6337 299.594 33.1039 301.103 33.1039C301.93 33.1039 302.658 32.9592 303.288 32.6699C303.929 32.3702 304.456 31.9104 304.869 31.2904C305.086 31.0734 305.252 30.9287 305.365 30.8564C305.489 30.784 305.613 30.7479 305.737 30.7479C305.903 30.7479 306.027 30.8305 306.109 30.9959C306.192 31.1509 306.228 31.342 306.218 31.5694C306.197 32.489 305.887 33.3415 305.288 34.1269C304.699 34.9019 303.883 35.527 302.839 36.0024C301.806 36.4674 300.612 36.6999 299.258 36.6999C297.739 36.6999 296.386 36.3899 295.197 35.7699C294.009 35.1499 293.069 34.287 292.376 33.1814C291.694 32.0757 291.353 30.784 291.353 29.3064C291.353 27.684 291.674 26.2684 292.314 25.0594C292.955 23.84 293.88 22.8945 295.089 22.2229C296.308 21.5409 297.76 21.1999 299.444 21.1999C300.912 21.1999 302.152 21.4582 303.164 21.9749C304.187 22.4812 304.957 23.1839 305.474 24.0829C306.001 24.9715 306.264 25.9945 306.264 27.1519Z" fill="#F5EEF3"/>
</svg>
